<svg width="154" height="154" viewBox="0 0 154 154" fill="none" xmlns="http://www.w3.org/2000/svg">
<rect width="154" height="154" fill="#004831"/>
<g clip-path="url(#clip0_316_44)">
<mask id="mask0_316_44" style="mask-type:luminance" maskUnits="userSpaceOnUse" x="44" y="38" width="66" height="78">
<path d="M109.927 38.4507H44.0723V115.549H109.927V38.4507Z" fill="white"/>
</mask>
<g mask="url(#mask0_316_44)">
<path d="M102.567 43.8522C105.831 47.1608 107.925 51.7622 107.925 56.8098C107.925 61.8573 105.831 66.4433 102.567 69.7673C99.2567 73.1374 94.7144 75.1688 89.664 75.1688C84.6136 75.1688 80.0713 73.1221 76.8071 69.7673C73.5428 66.4587 71.4487 61.8573 71.4487 56.8098C71.4487 51.7622 73.5428 47.1763 76.8071 43.8522C80.0713 40.482 84.6598 38.4507 89.664 38.4507C94.6682 38.4507 99.2567 40.4974 102.567 43.8522Z" fill="#3FF5AB"/>
<path d="M66.0294 44.0676C66.8454 46.2067 66.8454 48.7612 66.0294 50.9465C65.2595 52.8855 63.8891 54.5167 61.8412 55.3785C72.2961 57.2098 71.6957 74.6455 59.9473 74.6455H44.0879V39.02H58.5308C62.411 39.02 64.9053 41.2053 66.0294 44.0676Z" fill="#3FF5AB"/>
<path d="M44.0723 79.0157L44.1031 115.226H57.5451H69.2472V79.4775H57.5451V94.574L44.6728 79.0157H44.0723Z" fill="#3FF5AB"/>
<path d="M90.5265 97.2213L100.027 80.7859C97.4707 79.447 94.576 78.693 91.4965 78.693C81.3187 78.693 73.0657 86.9414 73.0657 97.1136C73.0657 107.286 81.3187 115.534 91.4965 115.534C101.674 115.534 109.881 107.347 109.927 97.2059H90.5265V97.2213Z" fill="#3FF5AB"/>
</g>
</g>
<defs>
<clipPath id="clip0_316_44">
<rect width="65.8552" height="77.0988" fill="white" transform="translate(44.0723 38.4507)"/>
</clipPath>
</defs>
</svg>
